# xmcd
#
# Track frame offsets:
#	150
#	10987
#	23137
#	35402
#	48520
#	60920
#	72499
#	84127
#	95840
#	107054
#	119295
#	131201
#	142690
#	153562
#	168339
#	194643
#	207393
#	220825
#	245421
#	262379
#	280684
#	301627
#	315563
#
# Disc length: 4356 seconds
#
# Revision: 3
# Processed by: cddbd v1.5.2PL0 Copyright (c) Steve Scherf et al.
# Submitted via: audiograbber 1.83.01
#
DISCID=49110217
DTITLE=Tommy Dorsey - Quadromenia - CD 4
DYEAR=2005
DGENRE=Jazz
TTITLE0=Tommy Dorsey - Marie
TTITLE1=Tommy Dorsey - You're My Everything
TTITLE2=Tommy Dorsey - Little Girl
TTITLE3=Tommy Dorsey - The Man That Got Away
TTITLE4=Tommy Dorsey - Silk Stockings
TTITLE5=Tommy Dorsey - Who?
TTITLE6=Tommy Dorsey - The High and The Mighty
TTITLE7=Tommy Dorsey - Papa Loves Mambo
TTITLE8=Tommy Dorsey - Love You Didn't Do Right By Me
TTITLE9=Tommy Dorsey - In A Little Spanish Town
TTITLE10=Tommy Dorsey - Granada
TTITLE11=Tommy Dorsey - You Too Can Be A Dreamer
TTITLE12=Tommy Dorsey - It Happens To Be Me
TTITLE13=Tommy Dorsey - Rain
TTITLE14=Tommy Dorsey - Jazz Me Blues
TTITLE15=Tommy Dorsey - Sentimental Me
TTITLE16=Tommy Dorsey - Falling In Love With Love
TTITLE17=Tommy Dorsey - Puddle Wump
TTITLE18=Tommy Dorsey - Our Love Is Here To Stay - They Can't Take That Away Fr
TTITLE18=om Me
TTITLE19=Tommy Dorsey - Dark Eyes
TTITLE20=Tommy Dorsey - Medley There Are Such Things - Marie Elena - Holiday Fo
TTITLE20=r Strings - 1954
TTITLE21=Tommy Dorsey - Skirts And Sweaters
TTITLE22=Tommy Dorsey - Melancholy Serenade
EXTD=YEAR: 2005
EXTT0=
EXTT1=
EXTT2=
EXTT3=
EXTT4=
EXTT5=
EXTT6=
EXTT7=
EXTT8=
EXTT9=
EXTT10=
EXTT11=
EXTT12=
EXTT13=
EXTT14=
EXTT15=
EXTT16=
EXTT17=
EXTT18=
EXTT19=
EXTT20=
EXTT21=
EXTT22=
PLAYORDER=
